<?xml version="1.0" standalone="no"?>
<!DOCTYPE svg PUBLIC "-//W3C//DTD SVG 20010904//EN"
 "http://www.w3.org/TR/2001/REC-SVG-20010904/DTD/svg10.dtd">
<svg version="1.0" xmlns="http://www.w3.org/2000/svg"
 width="1157.000000pt" height="1157.000000pt" viewBox="0 0 1157.000000 1157.000000"
 preserveAspectRatio="xMidYMid meet">
<metadata>
Created by potrace 1.14, written by Peter Selinger 2001-2017
</metadata>
<g transform="translate(0.000000,1157.000000) scale(0.100000,-0.100000)"
fill="#000000" stroke="none">
<path d="M2039 9666 c-2 -2 -33 -7 -69 -10 -156 -16 -299 -64 -349 -117 -99
-104 -74 -242 86 -485 59 -89 268 -363 292 -384 7 -5 136 -159 345 -410 171
-205 173 -208 231 -284 32 -42 56 -64 65 -62 8 3 60 22 115 44 142 55 318 103
465 127 19 3 46 7 60 10 153 27 483 27 635 0 304 -55 649 -225 945 -463 121
-99 335 -309 439 -435 183 -220 324 -431 461 -692 29 -55 54 -101 55 -103 2
-2 24 39 50 90 259 511 660 983 1080 1269 142 97 333 199 456 244 232 85 398
113 644 110 105 -2 201 -5 215 -8 14 -3 48 -8 76 -11 43 -5 138 -22 221 -40
79 -17 230 -63 313 -95 l98 -38 43 55 c95 120 339 416 384 466 6 6 55 65 110
131 55 66 102 122 105 125 3 3 40 48 81 100 309 389 390 588 293 717 -39 51
-142 103 -236 118 -18 3 -44 8 -58 10 -73 15 -115 17 -335 20 -280 3 -413 -7
-645 -46 -63 -11 -126 -22 -140 -24 -78 -13 -296 -73 -440 -121 -341 -113
-629 -256 -943 -466 -49 -33 -96 -66 -105 -73 -10 -7 -66 -52 -127 -101 -340
-269 -657 -630 -885 -1007 -93 -154 -246 -462 -272 -546 -2 -9 -10 0 -18 20
-104 261 -273 562 -454 809 -153 210 -379 457 -547 601 -35 30 -66 57 -69 60
-20 22 -220 173 -321 242 -425 288 -878 479 -1379 581 -126 25 -252 44 -405
62 -55 6 -561 15 -566 10z"/>
<path d="M350 8113 c-91 -10 -170 -36 -207 -68 -36 -31 -38 -36 -37 -91 0 -65
18 -106 87 -209 34 -51 189 -249 206 -265 4 -3 40 -45 81 -95 41 -49 77 -92
80 -95 3 -3 51 -61 106 -130 359 -447 538 -790 589 -1130 12 -82 13 -309 1
-360 -3 -14 -10 -50 -16 -80 -10 -56 -35 -149 -50 -185 -5 -11 -22 -54 -39
-96 -69 -173 -215 -416 -377 -630 -40 -53 -176 -221 -301 -373 -264 -318 -279
-337 -329 -431 -46 -85 -54 -167 -19 -205 61 -68 175 -90 430 -85 105 2 206 6
225 9 19 4 67 11 105 17 39 6 106 20 150 31 44 11 87 21 96 23 25 5 200 66
249 87 171 73 391 202 524 307 159 125 350 325 448 470 18 25 35 48 38 51 15
11 123 205 166 296 92 196 172 448 189 599 4 33 9 62 10 65 16 28 26 385 14
500 -18 172 -38 282 -72 410 -120 446 -406 882 -767 1170 -146 116 -386 261
-535 321 -122 50 -269 99 -340 114 -11 2 -51 11 -90 19 -38 8 -92 18 -120 21
-27 4 -77 10 -110 14 -61 9 -323 11 -385 4z"/>
<path d="M10938 8115 c-2 -1 -34 -5 -73 -9 -199 -18 -463 -87 -645 -168 -82
-36 -215 -102 -240 -118 -14 -9 -72 -48 -130 -86 -559 -369 -937 -1000 -997
-1669 -13 -145 -6 -474 11 -527 3 -7 7 -31 10 -53 33 -259 153 -579 311 -834
317 -512 842 -885 1425 -1014 104 -23 137 -30 235 -44 69 -10 395 -11 460 -2
83 12 154 41 187 76 19 20 23 35 23 81 -1 47 -8 70 -40 130 -37 68 -142 211
-242 328 -23 27 -72 85 -108 129 -37 44 -77 91 -89 105 -50 59 -207 262 -269
349 -187 261 -313 513 -371 741 -32 126 -39 184 -40 315 0 127 7 187 33 300
61 253 173 475 412 815 55 79 390 492 429 530 3 3 23 28 45 55 21 28 42 52 46
55 19 15 126 171 156 227 45 83 53 158 21 198 -51 65 -175 94 -405 93 -83 0
-153 -1 -155 -3z"/>
<path d="M3697 7305 c-1 -2 -48 -5 -105 -9 -147 -8 -441 -71 -470 -100 -2 -3
7 -25 21 -49 175 -299 318 -696 362 -1007 4 -25 9 -58 12 -75 9 -55 10 -309 1
-400 -20 -209 -86 -473 -173 -690 -49 -125 -159 -351 -213 -443 -18 -29 -32
-55 -32 -57 0 -6 150 -51 234 -70 208 -48 513 -55 661 -16 335 89 645 311 968
694 199 236 467 665 467 748 0 50 -139 299 -275 494 -85 121 -204 272 -275
349 -373 407 -736 616 -1090 629 -50 2 -91 3 -93 2z"/>
<path d="M7817 7304 c-1 -1 -33 -4 -72 -8 -370 -32 -805 -322 -1175 -786 -206
-258 -407 -599 -401 -683 4 -71 170 -356 331 -572 141 -189 368 -431 501 -535
38 -30 76 -60 83 -67 31 -28 192 -127 266 -164 93 -47 228 -94 315 -111 92
-17 442 -19 560 -2 107 15 255 50 268 63 5 5 -11 44 -36 87 -226 399 -359 787
-392 1144 -6 60 -6 296 -1 340 3 19 7 58 10 85 7 69 16 127 22 144 2 8 7 30
10 50 3 20 10 52 15 71 6 19 19 67 30 107 51 189 174 473 302 700 l36 63 -53
15 c-56 16 -67 19 -156 35 -99 18 -160 22 -311 24 -83 1 -151 1 -152 0z"/>
<path d="M5785 5153 c-94 -201 -293 -501 -475 -718 -69 -82 -317 -321 -410
-395 -419 -333 -842 -495 -1290 -493 -88 0 -291 13 -300 18 -3 2 -30 6 -60 10
-108 12 -392 87 -495 130 -90 38 -135 55 -143 55 -5 0 -40 -39 -78 -87 -38
-49 -103 -128 -144 -178 -41 -49 -83 -99 -92 -110 -68 -81 -218 -260 -257
-304 -132 -154 -381 -485 -381 -508 0 -3 -8 -17 -19 -31 -29 -42 -70 -154 -77
-211 -19 -161 115 -255 414 -288 87 -10 517 -10 607 0 39 4 90 10 115 13 25 3
61 7 80 10 19 3 49 7 65 10 65 8 99 15 212 39 966 208 1817 789 2368 1616 128
192 271 457 337 624 25 63 34 73 43 44 4 -13 22 -55 40 -94 177 -384 361 -674
608 -960 140 -162 407 -414 552 -521 22 -16 46 -34 52 -41 7 -6 72 -51 145
-101 366 -247 759 -423 1183 -532 83 -21 170 -41 195 -45 24 -4 47 -8 50 -10
4 -2 29 -7 56 -10 27 -4 56 -8 64 -10 24 -7 177 -25 270 -33 113 -9 542 -9
605 1 28 4 59 9 70 11 118 17 241 70 284 123 104 126 24 329 -273 703 -68 85
-297 362 -306 370 -10 9 -252 300 -334 403 -59 74 -83 96 -95 91 -123 -54
-423 -146 -517 -158 -16 -2 -45 -6 -64 -10 -159 -27 -405 -38 -551 -23 -467
48 -935 292 -1349 707 -253 253 -448 518 -615 835 -32 61 -59 111 -60 113 -1
1 -15 -23 -30 -55z"/>
</g>
</svg>
